<svg width="120" height="145" viewBox="0 0 120 145" fill="none" xmlns="http://www.w3.org/2000/svg">
<path d="M107.06 27.3545C97.83 20.753 91.5571 9.52242 87.6014 1.60059C69.1416 10.8427 48.7378 14.1435 28.3001 15.4657C21.7073 49.793 13.1367 74.218 0.610352 107.226C7.52548 119.651 6.54387 125.05 20.3887 134.291C31.5965 134.291 38.5343 140.233 50.4013 143.533C50.4013 143.533 75.1191 136.366 100.192 130.37C105.955 128.992 111.245 128.17 116.789 126.936C122.433 114.422 116.464 92.0776 111.638 69.1331C109.449 57.6862 106.454 37.0614 107.06 27.3545Z" fill="#D9D9D9" fill-opacity="0.5"/>
<path d="M111.638 69.1331C109.449 57.6862 106.454 37.0614 107.06 27.3545C97.83 20.753 91.5571 9.52242 87.6014 1.60059C69.1416 10.8427 48.7378 14.1435 28.3001 15.4657C21.7073 49.793 13.1367 74.218 0.610352 107.226C7.52548 119.651 6.54387 125.05 20.3887 134.291C31.5965 134.291 38.5343 140.233 50.4013 143.533C50.4013 143.533 75.1191 136.366 100.192 130.37C105.955 128.992 111.245 128.17 116.789 126.936C122.433 114.422 116.464 92.0776 111.638 69.1331ZM111.638 69.1331C112.226 72.2036 110.99 66.0501 111.638 69.1331Z" stroke="white"/>
<path d="M106.435 115.807C97.864 123.069 70.8335 124.389 47.3722 130.991L45.1216 132.971C67.5371 135.612 99.8794 130.991 99.8794 130.991C105.642 129.613 111.439 128.264 116.983 127.03C116.983 127.03 109.072 120.428 106.435 115.807Z" stroke="white"/>
<path d="M47.3721 130.991L45.1215 132.971M45.1215 132.971C45.1215 132.971 33.9137 129.01 31.2766 129.67C28.6395 130.331 20.0688 134.291 20.0688 134.291C31.2766 134.291 38.5287 140.233 50.3957 143.534C50.3957 143.534 74.8061 136.986 99.8793 130.991C99.8793 130.991 67.537 135.612 45.1215 132.971Z" stroke="white"/>
<path d="M107.094 27.3465C97.8637 20.745 91.557 9.52242 87.6013 1.60059C86.9421 5.5615 84.1675 9.61292 84.1675 9.61292C88.3402 17.9695 97.9072 23.2971 103.306 25.7769C105.584 26.8233 107.094 27.3465 107.094 27.3465Z" stroke="white"/>
<path d="M112.106 68.936C112.693 72.0065 111.457 65.853 112.106 68.936ZM112.106 68.936C116.931 91.8805 122.627 114.516 116.983 127.03C116.983 127.03 109.072 120.428 106.435 115.807C112.368 103.264 111.709 73.5571 110.39 67.6157L112.106 68.936Z" stroke="white"/>
<path d="M112.106 68.9361C109.916 57.4891 106.488 37.0533 107.094 27.3465C107.094 27.3465 105.585 26.8233 103.306 25.7769C102.734 39.3729 108.568 59.4038 110.39 67.6158L112.106 68.9361ZM112.106 68.9361C112.693 72.0065 111.457 65.853 112.106 68.9361Z" stroke="white"/>
<path d="M0.610352 107.226C7.52548 119.651 6.54387 125.05 20.3887 134.291C20.3887 134.291 28.9594 130.33 31.5965 129.67C34.2336 129.01 45.4414 132.971 45.4414 132.971L47.692 130.991C47.692 130.991 48.0785 127.03 46.1007 124.389L46.1006 124.389C40.1671 122.409 38.1893 121.748 31.5965 117.787C22.3846 112.253 14.4552 105.245 8.52171 96.6626C6.54387 100.624 0.610352 107.226 0.610352 107.226Z" stroke="white"/>
<path d="M87.6017 1.60059C69.1419 10.8427 48.738 14.1435 28.3003 15.4657C28.3003 15.4657 31.5967 18.1044 37.5302 19.0956C37.5302 19.0956 60.9896 19.3963 71.1535 16.1239C80.3834 13.1523 84.1678 9.61292 84.1678 9.61292C84.1678 9.61292 86.9424 5.5615 87.6017 1.60059Z" stroke="white"/>
<path d="M28.3001 15.4658C21.7073 49.7931 13.1367 74.2181 0.610352 107.226C0.610352 107.226 6.54387 100.624 8.52171 96.6627C15.1145 82.1393 32.2558 37.9091 37.53 19.0957C31.5965 18.1045 28.3001 15.4658 28.3001 15.4658Z" stroke="white"/>
<g filter="url(#filter0_f_560_122)">
<path d="M77.3315 88.7922L79.153 86.9707L83.4031 91.2208H92.8568L91.9034 93.6492L82.1888 93.6495L77.3315 88.7922Z" fill="#A5A5A5" fill-opacity="0.5" stroke="#A5A5A5" stroke-opacity="0.5"/>
<path d="M77.9385 75.4344L79.76 77.2559L84.0101 73.0057H100.052L101.011 70.5771H82.7958L77.9385 75.4344Z" fill="#A5A5A5" fill-opacity="0.5" stroke="#A5A5A5" stroke-opacity="0.5"/>
<path d="M51.2231 55.3979L77.9382 82.113L51.2231 108.828" stroke="#A5A5A5" stroke-opacity="0.5" stroke-width="3"/>
<path d="M77.9385 55.3979L51.2234 82.113L77.9385 108.828" stroke="#A5A5A5" stroke-opacity="0.5" stroke-width="3"/>
<path d="M84.0102 82.1132L82.7959 80.8989H96.9361L95.9732 83.3276H82.7959L84.0102 82.1132Z" fill="#A5A5A5" fill-opacity="0.5" stroke="#A5A5A5" stroke-opacity="0.5" stroke-width="2"/>
<path d="M50.6162 89.3991L48.7947 87.5776L44.5446 91.8278H35.0909L36.0444 94.2562L45.7589 94.2564L50.6162 89.3991Z" fill="#A5A5A5" fill-opacity="0.5" stroke="#A5A5A5" stroke-opacity="0.5"/>
<path d="M50.0088 76.0413L48.1873 77.8628L43.9372 73.6127H27.8949L26.9367 71.184H45.1515L50.0088 76.0413Z" fill="#A5A5A5" fill-opacity="0.5" stroke="#A5A5A5" stroke-opacity="0.5"/>
<path d="M43.9375 82.7202L45.1519 81.5059H31.0117L31.9746 83.9345H45.1519L43.9375 82.7202Z" fill="#A5A5A5" fill-opacity="0.5" stroke="#A5A5A5" stroke-opacity="0.5" stroke-width="2"/>
</g>
<path d="M77.3315 88.7922L79.153 86.9707L83.4031 91.2208H92.8568L91.9034 93.6492L82.1888 93.6495L77.3315 88.7922Z" fill="white" stroke="white"/>
<path d="M77.9385 75.4344L79.76 77.2559L84.0101 73.0057H100.052L101.011 70.5771H82.7958L77.9385 75.4344Z" fill="white" stroke="white"/>
<path d="M51.2231 55.3979L77.9382 82.113L51.2231 108.828" stroke="white" stroke-width="3"/>
<path d="M77.9385 55.3979L51.2234 82.113L77.9385 108.828" stroke="white" stroke-width="3"/>
<path d="M84.0102 82.1132L82.7959 80.8989H96.9361L95.9732 83.3276H82.7959L84.0102 82.1132Z" fill="white" stroke="white" stroke-width="2"/>
<path d="M50.6162 89.3991L48.7947 87.5776L44.5446 91.8278H35.0909L36.0444 94.2562L45.7589 94.2564L50.6162 89.3991Z" fill="white" stroke="white"/>
<path d="M50.0088 76.0413L48.1873 77.8628L43.9372 73.6127H27.8949L26.9367 71.184H45.1515L50.0088 76.0413Z" fill="white" stroke="white"/>
<path d="M43.9375 82.7202L45.1519 81.5059H31.0117L31.9746 83.9345H45.1519L43.9375 82.7202Z" fill="white" stroke="white" stroke-width="2"/>
<defs>
<filter id="filter0_f_560_122" x="21.2021" y="49.3374" width="85.543" height="65.5513" filterUnits="userSpaceOnUse" color-interpolation-filters="sRGB">
<feFlood flood-opacity="0" result="BackgroundImageFix"/>
<feBlend mode="normal" in="SourceGraphic" in2="BackgroundImageFix" result="shape"/>
<feGaussianBlur stdDeviation="2.5" result="effect1_foregroundBlur_560_122"/>
</filter>
</defs>
</svg>
