<svg width="119" height="142" viewBox="0 0 119 142" fill="none" xmlns="http://www.w3.org/2000/svg">
<path d="M106.45 25.7539C97.2197 19.1524 90.9467 7.92183 86.9911 0C68.5312 9.24214 48.1274 12.5429 27.6897 13.8651C21.097 48.1924 12.5263 72.6174 0 105.626C6.91513 118.05 5.93352 123.449 19.7784 132.691C30.9861 132.691 37.9239 138.632 49.7909 141.933C49.7909 141.933 74.5087 134.765 99.5819 128.77C105.344 127.392 110.635 126.569 116.179 125.336C121.823 112.822 115.854 90.477 111.028 67.5325C108.838 56.0856 105.844 35.4608 106.45 25.7539Z" fill="#2C2B33"/>
<path d="M105.824 114.207C97.2536 121.468 70.2231 122.789 46.7619 129.39L44.5112 131.371C66.9267 134.011 99.2691 129.39 99.2691 129.39C105.031 128.012 110.829 126.663 116.373 125.43C116.373 125.43 108.461 118.828 105.824 114.207Z" fill="#0B0228"/>
<path d="M19.4585 132.691C30.6663 132.691 37.9183 138.632 49.7854 141.933C49.7854 141.933 74.1958 135.386 99.269 129.39C99.269 129.39 66.9266 134.011 44.5111 131.371C44.5111 131.371 33.3034 127.41 30.6663 128.07C28.0291 128.73 19.4585 132.691 19.4585 132.691Z" fill="#200E65"/>
<path d="M106.483 25.7459C97.2534 19.1444 90.9467 7.92183 86.991 0C86.3317 3.96092 83.5571 8.01234 83.5571 8.01234C87.7299 16.3689 97.2969 21.6965 102.696 24.1763C104.974 25.2227 106.483 25.7459 106.483 25.7459Z" fill="#62606E"/>
<path d="M116.373 125.43C116.373 125.43 108.461 118.827 105.824 114.206C111.758 101.663 111.098 71.9565 109.78 66.0151L111.495 67.3354C116.321 90.2799 122.017 112.915 116.373 125.43Z" fill="#271D47"/>
<path d="M111.495 67.3355C109.306 55.8885 105.878 35.4527 106.484 25.7459C106.484 25.7459 104.974 25.2227 102.696 24.1763C102.124 37.7724 107.958 57.8032 109.78 66.0152L111.495 67.3355Z" fill="#3C364E"/>
<path d="M0 105.626C6.91513 118.05 5.93352 123.449 19.7784 132.691C19.7784 132.691 28.349 128.73 30.9861 128.07C33.6233 127.409 44.831 131.37 44.831 131.37L47.0817 129.39C47.0817 129.39 47.4681 125.429 45.4903 122.788L45.4903 122.788C39.5568 120.808 37.5789 120.148 30.9861 116.187C21.7743 110.652 13.8449 103.644 7.91136 95.062C5.93352 99.0229 0 105.626 0 105.626Z" fill="#473A7B"/>
<path d="M86.9913 0C68.5315 9.24214 48.1276 12.5429 27.6899 13.8651C27.6899 13.8651 30.9863 16.5038 36.9199 17.495C36.9199 17.495 60.3793 17.7957 70.5431 14.5234C79.773 11.5517 83.5575 8.01234 83.5575 8.01234C83.5575 8.01234 86.3321 3.96092 86.9913 0Z" fill="#FFF4FD"/>
<path d="M27.6897 13.8652C21.097 48.1925 12.5263 72.6175 0 105.626C0 105.626 5.93352 99.023 7.91136 95.0621C14.5042 80.5387 31.6454 36.3085 36.9197 17.4951C30.9862 16.5039 27.6897 13.8652 27.6897 13.8652Z" fill="#9D92CD"/>
<g filter="url(#filter0_f_517_88)">
<path d="M76.7212 87.1911L78.5427 85.3696L82.7928 89.6197H92.2465L91.293 92.0482L81.5785 92.0484L76.7212 87.1911Z" fill="#BA8F9A" fill-opacity="0.5" stroke="#BA8F9A" stroke-opacity="0.5"/>
<path d="M77.3281 73.8335L79.1496 75.655L83.3997 71.4049H99.442L100.4 68.9763H82.1854L77.3281 73.8335Z" fill="#BA8F9A" fill-opacity="0.5" stroke="#BA8F9A" stroke-opacity="0.5"/>
<path d="M50.6128 53.7971L77.3278 80.5122L50.6128 107.227" stroke="#BA8F9A" stroke-opacity="0.5" stroke-width="3"/>
<path d="M77.3281 53.7971L50.6131 80.5122L77.3281 107.227" stroke="#BA8F9A" stroke-opacity="0.5" stroke-width="3"/>
<path d="M83.3999 80.5122L82.1855 79.2979H96.3257L95.3628 81.7265H82.1855L83.3999 80.5122Z" fill="#BA8F9A" fill-opacity="0.5" stroke="#BA8F9A" stroke-opacity="0.5" stroke-width="2"/>
<path d="M50.0059 87.7983L48.1844 85.9768L43.9343 90.2269H34.4806L35.434 92.6553L45.1486 92.6556L50.0059 87.7983Z" fill="#BA8F9A" fill-opacity="0.5" stroke="#BA8F9A" stroke-opacity="0.5"/>
<path d="M49.3984 74.4405L47.577 76.262L43.3268 72.0118H27.2845L26.3264 69.5832H44.5412L49.3984 74.4405Z" fill="#BA8F9A" fill-opacity="0.5" stroke="#BA8F9A" stroke-opacity="0.5"/>
<path d="M43.3272 81.1191L44.5415 79.9048H30.4013L31.3642 82.3334H44.5415L43.3272 81.1191Z" fill="#BA8F9A" fill-opacity="0.5" stroke="#BA8F9A" stroke-opacity="0.5" stroke-width="2"/>
</g>
<path d="M76.7212 87.1911L78.5427 85.3696L82.7928 89.6197H92.2465L91.293 92.0482L81.5785 92.0484L76.7212 87.1911Z" fill="#7E9EFF" stroke="#7E9EFF"/>
<path d="M77.3281 73.8335L79.1496 75.655L83.3997 71.4049H99.442L100.4 68.9763H82.1854L77.3281 73.8335Z" fill="#7E9EFF" stroke="#7E9EFF"/>
<path d="M50.6128 53.7971L77.3278 80.5122L50.6128 107.227" stroke="#7E9EFF" stroke-width="3"/>
<path d="M77.3281 53.7971L50.6131 80.5122L77.3281 107.227" stroke="#7E9EFF" stroke-width="3"/>
<path d="M83.3999 80.5122L82.1855 79.2979H96.3257L95.3628 81.7265H82.1855L83.3999 80.5122Z" fill="#7E9EFF" stroke="#7E9EFF" stroke-width="2"/>
<path d="M50.0059 87.7983L48.1844 85.9768L43.9343 90.2269H34.4806L35.434 92.6553L45.1486 92.6556L50.0059 87.7983Z" fill="#7E9EFF" stroke="#7E9EFF"/>
<path d="M49.3984 74.4405L47.577 76.262L43.3268 72.0118H27.2845L26.3264 69.5832H44.5412L49.3984 74.4405Z" fill="#7E9EFF" stroke="#7E9EFF"/>
<path d="M43.3272 81.1191L44.5415 79.9048H30.4013L31.3642 82.3334H44.5415L43.3272 81.1191Z" fill="#7E9EFF" stroke="#7E9EFF" stroke-width="2"/>
<defs>
<filter id="filter0_f_517_88" x="20.5918" y="47.7366" width="85.543" height="65.5513" filterUnits="userSpaceOnUse" color-interpolation-filters="sRGB">
<feFlood flood-opacity="0" result="BackgroundImageFix"/>
<feBlend mode="normal" in="SourceGraphic" in2="BackgroundImageFix" result="shape"/>
<feGaussianBlur stdDeviation="2.5" result="effect1_foregroundBlur_517_88"/>
</filter>
</defs>
</svg>
